<svg width="112" height="48" viewBox="0 0 112 48" fill="none" xmlns="http://www.w3.org/2000/svg">
  <path d="M0 44.2694L18.6184 18.5285H5.5263V24.5596H0.526314V14.9223H27.5657V17.9067L8.94734 43.6477H23.092V37.5544H28.092V47.2539H0V44.2694Z" fill="white"/>
  <path d="M29.7856 18.2798H26.4961V14.9223H41.6276V18.2798H37.2197L43.2066 40.4145H43.5355L51.1013 14.9223H57.1539L64.7196 40.4145H65.0486L71.0354 18.2798H66.6275V14.9223H78.4038V18.2798H75.1143L66.4302 47.2539H60.246L52.6144 23.0674H52.2855L44.6539 47.2539H38.4697L29.7856 18.2798Z" fill="white"/>
  <path d="M90.2238 48C88.1185 48 86.2106 47.6269 84.5001 46.8808C82.7896 46.0933 81.3422 44.9741 80.158 43.5233C78.9738 42.0725 78.0528 40.3109 77.3949 38.2383C76.737 36.1243 76.408 33.7409 76.408 31.0881C76.408 28.4352 76.737 26.0725 77.3949 24C78.0528 21.886 78.9738 20.1036 80.158 18.6529C81.3422 17.2021 82.7896 16.1036 84.5001 15.3575C86.2106 14.5699 88.1185 14.1762 90.2238 14.1762C92.8115 14.1762 94.8729 14.7358 96.408 15.8549C97.9869 16.9741 99.1272 18.2798 99.829 19.772H100.158V5.72021L95.6843 4.91192V2.17617L107.526 0V42.2798L112 43.0881V45.8238L100.158 48V42.4041H99.829C99.1272 43.8964 97.9869 45.2021 96.408 46.3212C94.829 47.4404 92.7676 48 90.2238 48ZM92.5264 43.5233C93.4913 43.5233 94.4343 43.399 95.3553 43.1503C96.2764 42.8601 97.0878 42.4456 97.7895 41.9067C98.5351 41.3679 99.1053 40.7254 99.5 39.9793C99.9386 39.2332 100.158 38.3834 100.158 37.4301V24.7461C100.158 23.7927 99.9386 22.943 99.5 22.1969C99.1053 21.4508 98.5351 20.8083 97.7895 20.2694C97.0878 19.7306 96.2764 19.3368 95.3553 19.0881C94.4343 18.7979 93.4913 18.6529 92.5264 18.6529C90.0264 18.6529 88.0308 19.4611 86.5396 21.0777C85.0483 22.6943 84.3027 24.9326 84.3027 27.7927V34.3834C84.3027 37.2435 85.0483 39.4819 86.5396 41.0984C88.0308 42.715 90.0264 43.5233 92.5264 43.5233Z" fill="white"/>
</svg>
